<?xml version="1.0" standalone="no"?>
<!DOCTYPE svg PUBLIC "-//W3C//DTD SVG 1.1//EN" "http://www.w3.org/Graphics/SVG/1.1/DTD/svg11.dtd">
<svg width="34mm" height="26mm" viewBox="-15 -13 34 26" xmlns="http://www.w3.org/2000/svg" version="1.1">
<title>OpenSCAD Model</title>
<path d="
M 15,-0 L 14.1723,-1.43359 L 14.3013,-2.0491 L 14.34,-2.24644 L 14.3676,-2.41222 L 14.3842,-2.54642
 L 14.3897,-2.64903 L 14.3757,-2.81717 L 14.3336,-2.96793 L 14.2636,-3.10132 L 14.1655,-3.21735 L 14.0424,-3.31128
 L 13.8971,-3.37837 L 13.7298,-3.41862 L 13.5404,-3.43204 L 13.3667,-3.42139 L 13.1962,-3.38942 L 13.0669,-3.34824
 L 7.5,-12.9904 L -7.5,-12.9904 L -15,-0 L -7.5,12.9904 L 7.5,12.9904 z
M -5,8.66025 L -10,-0 L -5,-8.66025 L 5,-8.66025 L 8.08005,-3.32547 L 8.058,-3.33691
 L 7.79753,-3.40826 L 7.50548,-3.43204 L 7.05022,-3.38666 L 6.6506,-3.25049 L 6.30664,-3.02356 L 6.01834,-2.70584
 L 5.8512,-2.42799 L 5.73183,-2.13121 L 5.66019,-1.81548 L 5.63631,-1.48079 L 5.66275,-1.14601 L 5.74208,-0.845764
 L 5.87428,-0.580048 L 6.05936,-0.348862 L 6.2867,-0.161713 L 6.54559,-0.0280151 L 6.83609,0.0521698 L 7.15814,0.0789032
 L 7.39839,0.0636139 L 7.62662,0.017746 L 7.84279,-0.0587006 L 8.04694,-0.165741 L 8.23511,-0.303406 L 8.40334,-0.471634
 L 8.55164,-0.670456 L 8.68001,-0.899857 L 7.86856,-1.03563 L 7.72983,-0.831177 L 7.56624,-0.685135 L 7.37778,-0.597519
 L 7.16447,-0.568298 L 7.03235,-0.581131 L 6.91068,-0.619614 L 6.79947,-0.683746 L 6.69873,-0.773544 L 6.61517,-0.884247
 L 6.55548,-1.01114 L 6.51967,-1.15421 L 6.50774,-1.31346 L 6.50793,-1.32924 L 6.50853,-1.34818 L 6.50952,-1.37029
 L 6.51089,-1.39554 L 8.78421,-1.39554 L 8.81183,-1.53073 L 8.83156,-1.67419 L 8.8434,-1.82594 L 8.84734,-1.98598
 L 8.8465,-1.99792 L 9.26819,-1.26753 L 9.0032,-0 L 9.90941,-0 L 9.93349,-0.115204 L 10,-0
 L 5,8.66025 z
M 1.85654,-3.86775 L 2.02386,-0 L 2.92686,-0 L 4.755,-3.83934 L 3.84251,-0 L 4.71077,-0
 L 5.68011,-4.62869 L 4.30663,-4.62869 L 2.72795,-1.38609 L 2.58585,-4.62869 L 1.22821,-4.62869 L 0.262024,-0
 L 1.12083,-0 z
M 6.60245,-1.94807 L 6.65089,-2.14226 L 6.7173,-2.31119 L 6.80167,-2.45485 L 6.90396,-2.57323 L 7.01892,-2.6658
 L 7.14117,-2.73192 L 7.27074,-2.77159 L 7.40761,-2.78481 L 7.541,-2.77316 L 7.66019,-2.73824 L 7.76517,-2.68002
 L 7.85594,-2.59853 L 7.92914,-2.49373 L 7.98145,-2.36566 L 8.01282,-2.21429 L 8.02327,-2.03966 L 8.02307,-2.02209
 L 8.02248,-2.00098 L 8.0215,-1.9763 L 8.02011,-1.94807 z
M 16.7607,0.0418091 L 17.1317,-0.069458 L 17.4585,-0.254944 L 17.7411,-0.514618 L 17.969,-0.825241 L 18.1318,-1.16347
 L 18.2295,-1.52934 L 18.262,-1.92284 L 18.236,-2.25092 L 18.1578,-2.54364 L 18.0276,-2.80106 L 17.8452,-3.02315
 L 17.6165,-3.20204 L 17.3472,-3.32982 L 17.0372,-3.40648 L 16.6865,-3.43204 L 16.2793,-3.39742 L 15.9133,-3.29352
 L 15.5886,-3.12036 L 15.3051,-2.87793 L 15.0751,-2.57729 L 14.9109,-2.22948 L 14.8123,-1.83452 L 14.7794,-1.39238
 L 14.7907,-1.19662 L 14.8244,-1.00719 L 14.8807,-0.824051 L 14.9594,-0.647217 L 15.061,-0.483444 L 15.1859,-0.339386
 L 15.3341,-0.215073 L 15.5056,-0.110474 L 15.6955,-0.0276031 L 15.8987,0.0315552 L 16.1154,0.0670776 L 16.3455,0.0789032
 z
M 16.235,-0.635208 L 16.1056,-0.674866 L 15.9887,-0.740967 L 15.8845,-0.833511 L 15.7989,-0.948563 L 15.7377,-1.08218
 L 15.701,-1.23433 L 15.6888,-1.40503 L 15.6967,-1.55371 L 15.7204,-1.7093 L 15.7598,-1.8718 L 15.815,-2.04118
 L 15.8845,-2.20381 L 15.9666,-2.3459 L 16.0613,-2.46745 L 16.1687,-2.56848 L 16.2865,-2.64793 L 16.4126,-2.70468
 L 16.547,-2.73872 L 16.6896,-2.75008 L 16.8312,-2.73793 L 16.9592,-2.70152 L 17.0736,-2.64084 L 17.1743,-2.55588
 L 17.2565,-2.45079 L 17.3152,-2.32974 L 17.3504,-2.19269 L 17.3622,-2.03966 L 17.3397,-1.72826 L 17.2722,-1.44131
 L 17.1597,-1.17886 L 17.0022,-0.940887 L 16.8685,-0.801361 L 16.7197,-0.701706 L 16.5559,-0.641922 L 16.3771,-0.621994
 z
" stroke="black" fill="lightgray" stroke-width="0.5"/>
</svg>
